name Walk2.mot
datacolumns 19
datarows 27
range 1.31100000 1.33700000
endheader

                time	   L_ground_force_vx	   L_ground_force_vy	   L_ground_force_vz	   L_ground_force_px	   L_ground_force_py	   L_ground_force_pz	   R_ground_force_vx	   R_ground_force_vy	   R_ground_force_vz	   R_ground_force_px	   R_ground_force_py	   R_ground_force_pz	   L_ground_torque_x	   L_ground_torque_y	   L_ground_torque_z	   R_ground_torque_x	   R_ground_torque_y	   R_ground_torque_z	
          1.31100000	          8.16758823	         44.94902616	         -4.28725738	          0.00000787	          0.00000000	         -0.00047578	          0.00000000	          0.00000000	          0.00000000	          0.00000000	          0.00000000	          0.00000000	          0.00000000	          0.08053680	          0.00000000	          0.00000000	         -0.00000000	          0.00000000	
          1.31200000	          8.44597593	         50.58830395	         -4.83545925	         -0.01647627	          0.00000000	         -0.00240418	          0.00000000	          0.00000000	          0.00000000	          0.00000000	          0.00000000	          0.00000000	          0.00000000	          0.08937383	          0.00000000	          0.00000000	         -0.00000000	          0.00000000	
          1.31300000	          8.71087103	         56.33522026	         -5.38488736	         -0.03289542	          0.00000000	         -0.00432927	          0.00000000	          0.00000000	          0.00000000	          0.00000000	          0.00000000	          0.00000000	          0.00000000	          0.09857406	          0.00000000	          0.00000000	         -0.00000000	          0.00000000	
          1.31400000	          8.96002728	         62.17966210	         -5.93387754	         -0.04919635	          0.00000000	         -0.00624519	          0.00000000	          0.00000000	          0.00000000	          0.00000000	          0.00000000	          0.00000000	          0.00000000	          0.10813538	          0.00000000	          0.00000000	         -0.00000000	          0.00000000	
          1.31500000	          9.19106039	         68.11072123	         -6.48069849	         -0.06532723	          0.00000000	         -0.00814622	          0.00000000	          0.00000000	          0.00000000	          0.00000000	          0.00000000	          0.00000000	          0.00000000	          0.11805407	          0.00000000	          0.00000000	         -0.00000000	          0.00000000	
          1.31600000	          9.40144249	         74.11674269	         -7.02356881	         -0.08123953	          0.00000000	         -0.01002696	          0.00000000	          0.00000000	          0.00000000	          0.00000000	          0.00000000	          0.00000000	          0.00000000	          0.12832460	          0.00000000	          0.00000000	         -0.00000000	          0.00000000	
          1.31700000	          9.58850084	         80.18541115	         -7.56067612	         -0.09688931	          0.00000000	         -0.01188251	          0.00000000	          0.00000000	          0.00000000	          0.00000000	          0.00000000	          0.00000000	          0.00000000	          0.13893951	          0.00000000	          0.00000000	         -0.00000000	          0.00000000	
          1.31800000	          9.74942302	         86.30385966	         -8.09019277	         -0.11223729	          0.00000000	         -0.01370844	          0.00000000	          0.00000000	          0.00000000	          0.00000000	          0.00000000	          0.00000000	          0.00000000	          0.14988943	          0.00000000	          0.00000000	         -0.00000000	          0.00000000	
          1.31900000	          9.88126912	         92.45881696	         -8.61029033	         -0.12724858	          0.00000000	         -0.01550080	          0.00000000	          0.00000000	          0.00000000	          0.00000000	          0.00000000	          0.00000000	          0.00000000	          0.16116322	          0.00000000	          0.00000000	         -0.00000000	          0.00000000	
          1.32000000	          9.98099176	         98.63680384	         -9.11915413	         -0.14189247	          0.00000000	         -0.01725614	          0.00000000	          0.00000000	          0.00000000	          0.00000000	          0.00000000	          0.00000000	          0.00000000	          0.17274816	          0.00000000	          0.00000000	         -0.00000000	          0.00000000	
          1.32100000	         10.04546474	        104.82437377	         -9.61499713	         -0.15614213	          0.00000000	         -0.01897143	          0.00000000	          0.00000000	          0.00000000	          0.00000000	          0.00000000	          0.00000000	          0.00000000	          0.18463008	          0.00000000	          0.00000000	         -0.00000000	          0.00000000	
          1.32200000	         10.07152105	        111.00838369	        -10.09607190	         -0.16997441	          0.00000000	         -0.02064412	          0.00000000	          0.00000000	          0.00000000	          0.00000000	          0.00000000	          0.00000000	          0.00000000	          0.19679329	          0.00000000	          0.00000000	         -0.00000000	          0.00000000	
          1.32300000	         10.05599919	        117.17627273	        -10.56067967	         -0.18336963	          0.00000000	         -0.02227204	          0.00000000	          0.00000000	          0.00000000	          0.00000000	          0.00000000	          0.00000000	          0.00000000	          0.20922038	          0.00000000	          0.00000000	         -0.00000000	          0.00000000	
          1.32400000	          9.99579605	        123.31632277	        -11.00717553	         -0.19631134	          0.00000000	         -0.02385343	          0.00000000	          0.00000000	          0.00000000	          0.00000000	          0.00000000	          0.00000000	          0.00000000	          0.22189183	          0.00000000	          0.00000000	         -0.00000000	          0.00000000	
          1.32500000	          9.88792290	        129.41787764	        -11.43397020	         -0.20878612	          0.00000000	         -0.02538686	         -0.00000000	          0.00000000	          0.00000000	          0.00000000	          0.00000000	          0.00000000	          0.00000000	          0.23478556	          0.00000000	          0.00000000	         -0.00000000	          0.00000000	
          1.32600000	          9.72956099	        135.47150554	        -11.83952892	         -0.22078339	          0.00000000	         -0.02687124	         -0.00000000	          0.00000000	          0.00000000	          0.00000000	          0.00000000	          0.00000000	          0.00000000	          0.24787660	          0.00000000	          0.00000000	         -0.00000000	          0.00000000	
          1.32700000	          9.51811303	        141.46909899	        -12.22236931	         -0.23229521	          0.00000000	         -0.02830577	         -0.00000000	          0.00000000	          0.00000000	          0.00000000	          0.00000000	          0.00000000	          0.00000000	          0.26113697	          0.00000000	          0.00000000	         -0.00000000	          0.00000000	
          1.32800000	          9.25124772	        147.40391509	        -12.58105965	         -0.24331607	          0.00000000	         -0.02968993	         -0.00000000	          0.00000000	          0.00000000	          0.00000000	          0.00000000	          0.00000000	          0.00000000	          0.27453566	          0.00000000	          0.00000000	         -0.00000000	          0.00000000	
          1.32900000	          8.92693558	        153.27056307	        -12.91421871	         -0.25384275	          0.00000000	         -0.03102344	         -0.00000000	          0.00000000	          0.00000000	          0.00000000	          0.00000000	          0.00000000	          0.00000000	          0.28803896	          0.00000000	          0.00000000	         -0.00000000	          0.00000000	
          1.33000000	          8.54347495	        159.06494850	        -13.22051763	         -0.26387412	          0.00000000	         -0.03230625	         -0.00000000	          0.00000000	          0.00000000	          0.00000000	          0.00000000	          0.00000000	          0.00000000	          0.30161064	          0.00000000	          0.00000000	         -0.00000000	          0.00000000	
          1.33100000	          8.09950827	        164.78418300	        -13.49868342	         -0.27341096	          0.00000000	         -0.03353852	         -0.00000000	          0.00000000	          0.00000000	          0.00000000	          0.00000000	          0.00000000	          0.00000000	          0.31521229	          0.00000000	          0.00000000	         -0.00000000	          0.00000000	
          1.33200000	          7.59402909	        170.42646851	        -13.74750335	         -0.28245580	          0.00000000	         -0.03472060	         -0.00000000	          0.00000000	          0.00000000	          0.00000000	          0.00000000	          0.00000000	          0.00000000	          0.32880338	          0.00000000	          0.00000000	         -0.00000000	          0.00000000	
          1.33300000	          7.02638131	        175.99096464	        -13.96582940	         -0.29101280	          0.00000000	         -0.03585302	         -0.00000000	          0.00000000	          0.00000000	          0.00000000	          0.00000000	          0.00000000	          0.00000000	          0.34234118	          0.00000000	          0.00000000	         -0.00000000	          0.00000000	
          1.33400000	          6.39625233	        181.47764678	        -14.15258233	         -0.29908753	          0.00000000	         -0.03693645	         -0.00000000	          0.00000000	          0.00000000	          0.00000000	          0.00000000	          0.00000000	          0.00000000	          0.35578060	          0.00000000	          0.00000000	          0.00000000	          0.00000000	
          1.33500000	          5.70366214	        186.88716265	        -14.30675513	         -0.30668692	          0.00000000	         -0.03797170	         -0.00000000	          0.00000000	          0.00000000	          0.00000000	          0.00000000	          0.00000000	          0.00000000	          0.36907392	          0.00000000	          0.00000000	          0.00000000	          0.00000000	
          1.33600000	          4.94895013	        192.22069375	        -14.42741611	         -0.31381906	          0.00000000	         -0.03895971	         -0.00000000	          0.00000000	          0.00000000	          0.00000000	          0.00000000	          0.00000000	          0.00000000	          0.38217060	          0.00000000	          0.00000000	          0.00000000	          0.00000000	
          1.33700000	          4.13276140	        197.47982757	        -14.51371187	         -0.32049309	          0.00000000	         -0.03990150	         -0.00000000	          0.00000000	          0.00000000	          0.00000000	          0.00000000	          0.00000000	          0.00000000	          0.39501712	          0.00000000	          0.00000000	          0.00000000	          0.00000000	
